<svg version="1.0" xmlns="http://www.w3.org/2000/svg"
    width="559.000000pt" height="447.000000pt" viewBox="0 0 559.000000 447.000000"
    preserveAspectRatio="xMidYMid meet">

    <g transform="translate(0.000000,447.000000) scale(0.100000,-0.100000)"
        fill="#000000" stroke="none">
        <path
            d="M3344 4100 c-131 -26 -250 -134 -339 -310 -132 -261 -153 -599 -49
-790 60 -110 183 -198 316 -226 39 -8 75 -17 80 -20 11 -7 10 -171 -1 -179 -5
-3 -124 65 -263 151 -139 86 -261 160 -271 166 -15 8 -144 -67 -698 -409 -375
-230 -685 -426 -690 -436 -21 -38 5 -47 127 -47 l114 0 0 -805 0 -805 24 -15
c21 -14 73 -16 415 -13 335 3 393 5 401 18 12 18 13 520 2 537 -6 9 -71 13
-247 15 l-240 3 -3 283 -2 282 238 0 c172 0 241 3 250 12 9 9 12 78 12 250 l0
238 280 0 280 0 0 -233 c0 -171 3 -238 13 -250 10 -14 34 -17 137 -19 l125 -3
3 -274 c2 -213 -1 -276 -10 -283 -7 -4 -65 -8 -128 -8 -77 0 -120 -4 -128 -12
-9 -9 -12 -77 -12 -245 l0 -233 -183 0 c-129 0 -187 -4 -195 -12 -18 -18 -14
-46 7 -58 25 -13 381 -13 415 0 l26 9 2 238 3 238 100 0 100 0 3 -237 c2 -226
3 -238 22 -248 14 -7 107 -10 276 -8 213 3 256 5 264 18 6 9 10 330 10 818 l0
802 114 0 c91 0 116 3 127 16 9 11 10 21 3 31 -5 9 -175 117 -377 242 l-367
226 0 122 0 121 71 12 c140 24 272 117 332 236 109 216 78 561 -75 832 -104
184 -271 289 -414 262z m151 -94 c130 -62 265 -273 309 -484 80 -377 -48 -642
-331 -686 l-43 -6 0 88 0 87 125 125 c130 129 148 161 96 168 -19 3 -44 -17
-122 -94 l-99 -99 0 105 0 104 95 97 c95 96 106 114 83 137 -22 22 -39 13
-109 -55 l-69 -66 0 186 c0 155 -3 188 -16 201 -19 19 -26 20 -42 4 -8 -8 -12
-65 -12 -190 0 -202 -3 -209 -66 -134 -47 56 -78 74 -99 56 -8 -7 -15 -19 -15
-27 0 -8 41 -57 90 -108 l90 -93 0 -106 c0 -77 -3 -106 -12 -106 -7 0 -57 44
-110 97 -83 83 -101 96 -116 87 -37 -24 -24 -44 107 -178 l131 -133 0 -71 c0
-39 -4 -73 -9 -76 -17 -11 -115 16 -174 47 -155 81 -225 238 -214 477 7 137
31 239 86 356 71 150 171 267 261 303 47 18 131 12 185 -13z m-355 -1396 c102
-62 193 -120 203 -128 16 -14 17 -46 15 -461 l-3 -446 -100 0 -100 0 -5 245
-5 245 -325 3 c-179 1 -335 0 -347 -3 -23 -5 -23 -6 -25 -248 l-3 -242 -245
-5 -245 -5 -3 -339 c-1 -230 1 -343 8 -350 7 -7 91 -11 238 -11 125 0 233 -4
240 -8 9 -6 12 -60 12 -213 l0 -204 -349 0 c-280 0 -350 3 -354 13 -3 8 -4
364 -2 793 1 428 -1 789 -6 801 -7 19 -17 22 -76 25 l-68 3 340 210 c187 115
458 282 603 372 l264 162 76 -48 c42 -26 160 -99 262 -161z m594 -368 l271
-167 -50 -3 c-27 -1 -60 -5 -72 -7 l-23 -5 -2 -808 -3 -807 -212 -3 -213 -2 0
210 0 210 93 0 c59 0 99 5 110 12 16 12 17 42 15 353 l-3 340 -107 3 -108 3 0
425 c0 397 1 426 17 420 9 -4 139 -82 287 -174z m-156 -1024 l-3 -283 -70 0
-70 0 -3 283 -2 282 75 0 75 0 -2 -282z" />
    </g>
</svg>